<svg id="Layer_1" data-name="Layer 1" xmlns="http://www.w3.org/2000/svg" xmlns:xlink="http://www.w3.org/1999/xlink" viewBox="0 0 95.34 104.32"><defs><style>.cls-1{fill:none;}.cls-2{clip-path:url(#clip-path);}.cls-3{fill:#244c66;}.cls-4{fill:#fff;}</style><clipPath id="clip-path"><rect class="cls-1" x="-4124.79" y="-7282.28" width="5059.95" height="6765.77"/></clipPath></defs><title>Index </title><path class="cls-3" d="M78.64,15.74a2.77,2.77,0,0,1,2.77,2.77V95.4a2.77,2.77,0,0,1-2.77,2.77H16.7a2.77,2.77,0,0,1-2.77-2.77V18.51a2.77,2.77,0,0,1,2.77-2.77h7.48a2.7,2.7,0,0,1,2.6,2.14,2.11,2.11,0,0,0,.48,1c1.68,1.9,3.11,2,5.6,2H62.48c2.67,0,4.21-.25,5.9-2.37a1.62,1.62,0,0,0,.31-0.63,2.77,2.77,0,0,1,2.69-2.11h7.26m0-2H71.38a4.77,4.77,0,0,0-4.61,3.55c-1.11,1.37-1.89,1.56-4.29,1.56H32.86c-2.37,0-3-.12-4.11-1.34a0.16,0.16,0,0,1,0-.08,4.69,4.69,0,0,0-4.54-3.68H16.7a4.78,4.78,0,0,0-4.77,4.77V95.4a4.78,4.78,0,0,0,4.77,4.77H78.64a4.78,4.78,0,0,0,4.77-4.77V18.51a4.78,4.78,0,0,0-4.77-4.77h0Z"/><path class="cls-4" d="M30.5,21a4.72,4.72,0,0,1-3.16-1.12,4.47,4.47,0,0,1-1.49-3.8,4.68,4.68,0,0,1,4.75-4h6.71a2.49,2.49,0,0,0,2.41-2.55,4.5,4.5,0,0,1,4.47-4.4h7a4.5,4.5,0,0,1,4.43,4.53,2.48,2.48,0,0,0,2.47,2.42h6.68a4.68,4.68,0,0,1,4.64,3.52A4.48,4.48,0,0,1,65,21H30.5Z"/><path class="cls-3" d="M51.19,6.14a3.5,3.5,0,0,1,3.43,3.55,3.47,3.47,0,0,0,3.47,3.4h6.69a3.66,3.66,0,0,1,3.66,2.72A3.48,3.48,0,0,1,65,20H30.5A3.73,3.73,0,0,1,28,19.17a3.47,3.47,0,0,1-1.16-3,3.67,3.67,0,0,1,3.76-3.12h6.72a3.47,3.47,0,0,0,3.41-3.53A3.48,3.48,0,0,1,44.2,6.14h7m0-2h-7a5.5,5.5,0,0,0-5.47,5.38,1.49,1.49,0,0,1-1.41,1.57H30.6A5.68,5.68,0,0,0,24.85,16a5.47,5.47,0,0,0,1.82,4.64A5.71,5.71,0,0,0,30.5,22H65a5.48,5.48,0,0,0,5.36-6.62,5.62,5.62,0,0,0-5.62-4.33H58.09a1.48,1.48,0,0,1-1.47-1.44,5.49,5.49,0,0,0-5.43-5.5h0Z"/><path id="Shape" class="cls-3" d="M22.61,66v-7H19.38V36.79H54.59V59.05h-25Zm-1.22-9h3.23V61.2L28.78,57H52.58V38.8H21.39V57Z"/><rect id="Rectangle-path" class="cls-3" x="26.27" y="46.92" width="21.44" height="2.01"/><rect id="Rectangle-path-2" data-name="Rectangle-path" class="cls-3" x="26.27" y="42.46" width="21.44" height="2.01"/><rect id="Rectangle-path-3" data-name="Rectangle-path" class="cls-3" x="26.27" y="51.38" width="12.06" height="2.01"/><rect class="cls-4" x="38.39" y="53.77" width="35.3" height="20.65"/><path id="Shape-2" data-name="Shape" class="cls-3" d="M64.38,76.57H36.11V51.38H76V76.57H72.3v7.91Zm9.3-22.92H38.39V74.3H65.33L70,79V74.3h3.66V53.65Z"/><rect id="Rectangle-path-4" data-name="Rectangle-path" class="cls-3" x="43.91" y="62.84" width="24.26" height="2.27"/><rect id="Rectangle-path-5" data-name="Rectangle-path" class="cls-3" x="43.91" y="57.79" width="24.26" height="2.27"/><rect id="Rectangle-path-6" data-name="Rectangle-path" class="cls-3" x="54.52" y="67.89" width="13.64" height="2.27"/><polygon class="cls-3" points="34.16 82.16 72.21 44.11 75.5 47.43 37.45 85.48 34.16 82.16"/><path class="cls-4" d="M72.2,45.53l1.88,1.9L37.45,84.06l-1.88-1.9L72.2,45.53m0-2.84-1.42,1.42L34.16,80.75l-1.41,1.41,1.4,1.41L36,85.47l1.41,1.43,1.42-1.42L75.5,48.84l1.41-1.41L75.51,46l-1.88-1.9-1.41-1.43h0Z"/></svg>