<?xml version="1.0" encoding="utf-8"?>
<!-- Generator: Adobe Illustrator 19.2.0, SVG Export Plug-In . SVG Version: 6.00 Build 0)  -->
<svg version="1.1" id="Layer_1" xmlns="http://www.w3.org/2000/svg" xmlns:xlink="http://www.w3.org/1999/xlink" x="0px" y="0px"
	 viewBox="0 0 95.3 104.3" style="enable-background:new 0 0 95.3 104.3;" xml:space="preserve">
<style type="text/css">
	.st0{fill:#244C66;}
	.st1{fill:#5AA9D3;}
	.st2{fill:#FFFFFF;}
</style>
<circle class="st0" cx="47.7" cy="61.7" r="18.3"/>
<title>Index</title>
<path class="st0" d="M80.1,78.1c-2.4,0-4.6,1-6.1,2.9l-11.8-8.7c2.3-3,3.6-6.8,3.6-10.8c0-1.7-0.3-3.4-0.7-5h7.3
	c0.7,4.2,4.7,7,8.8,6.3s7-4.7,6.3-8.8c-0.7-4.2-4.7-7-8.8-6.3c-3.2,0.5-5.7,3.1-6.3,6.3h-8.2c-2.9-6.2-9.1-10.5-16.4-10.5
	c-7.3,0-13.5,4.3-16.4,10.5h-8.3c-0.7-4.2-4.7-7-8.8-6.3c-4.2,0.7-7,4.7-6.3,8.8c0.7,4.2,4.7,7,8.8,6.3c3.2-0.5,5.7-3.1,6.3-6.3h7.3
	c-0.5,1.7-0.8,3.4-0.8,5.1c0,0.6,0.5,4.3,0.5,4.3c0.5,2,1.4,4,2.6,5.7c0,0,0,0.1,0.1,0.1c0.2,0.2,0.3,0.5,0.5,0.7L21.5,81
	c-2.7-3.3-7.5-3.8-10.7-1.1c-3.3,2.7-3.8,7.5-1.1,10.7s7.5,3.8,10.7,1.1c1.8-1.5,2.8-3.6,2.8-5.9c0-0.9-0.2-1.7-0.5-2.5l12.2-9
	c0.4,0.4,0.8,0.8,1.3,1.1c0.2,0.1,0.4,0.3,0.6,0.4c0.1,0.1,0.3,0.2,0.4,0.3l0.1,0c3,2.1,6.6,3.4,10.5,3.4c5,0,9.5-2,12.7-5.3l12.2,9
	c-0.3,0.8-0.4,1.7-0.5,2.5c0,4.3,3.4,7.7,7.7,7.8s7.7-3.4,7.8-7.7C87.8,81.6,84.3,78.1,80.1,78.1z M80.1,50.1
	C80.1,50.1,80.1,50.1,80.1,50.1c2.8,0,5.1,2.3,5,5.2c0,2.8-2.3,5.1-5.2,5c-2.8,0-5-2.3-5-5.1C74.9,52.3,77.2,50,80.1,50.1z
	 M15.5,60.2C15.5,60.2,15.5,60.2,15.5,60.2c-2.8,0-5.1-2.3-5-5.2s2.3-5.1,5.2-5c2.8,0,5,2.3,5,5.1C20.7,58,18.4,60.3,15.5,60.2z
	 M15.5,90.9C15.5,90.9,15.5,90.9,15.5,90.9L15.5,90.9c-2.8,0-5.1-2.4-5-5.2s2.3-5.1,5.2-5c2.8,0,5,2.3,5,5.1
	C20.7,88.6,18.4,90.9,15.5,90.9z M79.9,90.9c-2.8,0-5-2.3-5-5.1c0-2.8,2.3-5.1,5.2-5.1c0,0,0,0,0,0c2.8,0,5.1,2.3,5,5.2
	C85.1,88.6,82.7,90.9,79.9,90.9z"/>
<g id="Shape-2">
	<path class="st1" d="M17.6,31.5c1.6,0,3.1-0.5,4.4-1.4c0.2-0.2,0.4-0.3,0.6-0.5l3.8,2.9l1.4-1.9L24,27.6c0.5-1,0.8-2.1,0.8-3.3
		c0-4-3.1-7.2-7.1-7.3s-7.2,3.1-7.3,7.1c0,4,3.1,7.2,7.1,7.3C17.6,31.5,17.6,31.5,17.6,31.5z M17.6,19.6c2.6,0,4.8,2.1,4.8,4.7
		c0,0,0,0,0,0c0,1.5-0.7,2.9-1.9,3.8c-2.1,1.6-5.1,1.2-6.7-0.9s-1.2-5.1,0.9-6.7C15.5,20,16.6,19.6,17.6,19.6z"/>
</g>
<path class="st0" d="M68.3,15.6c-9.2,0-16.7,7.5-16.7,16.7v13.1c2,0.3,5.9,2.2,8.3,3.1V32.7c0.2-4.6,4-8.3,8.7-8.1
	c4.4,0.2,7.9,3.7,8.1,8.1V39c0,0.6,0.2,1.1,0.7,1.5l4.3,2.8c0.8,0.7,2.1,0.6,2.8-0.2c0.3-0.4,0.5-0.8,0.5-1.3v-9.5
	C84.9,23.1,77.5,15.6,68.3,15.6z M82.9,41.8L78.7,39v-6.3c-0.2-5.7-5-10.2-10.7-10.1c-5.5,0.2-9.9,4.6-10.1,10.1v14.5
	c-1.4-0.7-2.8-1.2-4.3-1.5V32.3c0-8.1,6.6-14.7,14.7-14.7c8.1,0,14.7,6.6,14.7,14.7L82.9,41.8L82.9,41.8z"/>
<circle class="st2" cx="47.7" cy="61.7" r="15.8"/>
<g>
	<path class="st1" d="M44.6,63.6v7.1H51v-7.5c1.4-1.2,2.7-3,2.6-4.8c-0.2-3.3-3-5.9-6.3-5.7c-3.3,0.2-5.9,3-5.7,6.3
		C41.9,60.9,43,62.6,44.6,63.6z"/>
	<path class="st2" d="M47.8,54.7c2.1,0,3.8,1.7,3.8,3.8c0,1.4-0.7,2.6-1.9,3.3l-0.6,0.4v6.5h-2.6v-6.5l-0.6-0.4
		c-1.2-0.7-1.9-1.9-1.9-3.3C44,56.4,45.7,54.7,47.8,54.7z"/>
</g>
</svg>
