<?xml version="1.0" encoding="utf-8"?>
<!-- Generator: Adobe Illustrator 19.2.0, SVG Export Plug-In . SVG Version: 6.00 Build 0)  -->
<svg version="1.1" id="Layer_1" xmlns="http://www.w3.org/2000/svg" xmlns:xlink="http://www.w3.org/1999/xlink" x="0px" y="0px"
	 viewBox="0 0 95.3 104.3" style="enable-background:new 0 0 95.3 104.3;" xml:space="preserve">
<style type="text/css">
	.st0{fill:#244C66;}
	.st1{fill:#FFFFFF;}
	.st2{fill:#5AA9D3;}
</style>
<title>Index</title>
<path class="st0" d="M78.6,13.2l-7.3,0c-2.4,0-4.4,1.6-5.1,3.8c-0.9,1.1-1.5,1.3-3.8,1.3H32.9c-2.3,0-2.8-0.1-3.6-1.1
	c-0.5-2.4-2.6-4-5-4h-7.5c-2.9,0-5.3,2.4-5.3,5.3v76.9c0,2.9,2.4,5.3,5.3,5.3h61.9c2.9,0,5.3-2.4,5.3-5.3V18.5
	C83.9,15.6,81.5,13.2,78.6,13.2z M80.9,18.5v76.9c0,1.3-1,2.3-2.3,2.3H16.7c-1.3,0-2.3-1-2.3-2.3V18.5c0-1.3,1-2.3,2.3-2.3h7.5
	c1,0,1.9,0.7,2.1,1.7c0.1,0.5,0.3,0.9,0.6,1.2c1.8,2.1,3.5,2.2,6,2.2h29.6c2.6,0,4.4-0.2,6.3-2.6c0.2-0.2,0.3-0.5,0.4-0.8
	c0.2-1,1.2-1.7,2.2-1.7h7.3v0C79.9,16.2,80.9,17.3,80.9,18.5z"/>
<path class="st1" d="M30.5,21c-1.2,0-2.3-0.4-3.2-1.1c-1.1-1-1.6-2.4-1.5-3.8c0.3-2.3,2.4-4.1,4.8-4h6.7c1.4,0,2.4-1.2,2.4-2.6
	c0.1-2.4,2-4.4,4.5-4.4h7c2.5,0,4.4,2.1,4.4,4.5c0,1.3,1.1,2.4,2.5,2.4h6.7c2.2,0,4.1,1.4,4.6,3.5c0.5,2.4-1,4.8-3.5,5.3
	C65.6,21,65.3,21,65,21H30.5z"/>
<path class="st0" d="M51.2,6.1c1.9,0,3.5,1.6,3.4,3.5c0,1.9,1.6,3.4,3.5,3.4h6.7c1.7-0.1,3.2,1.1,3.7,2.7c0.4,1.9-0.8,3.7-2.7,4.1
	C65.5,20,65.2,20,65,20H30.5c-0.9,0-1.8-0.3-2.5-0.8c-0.9-0.7-1.3-1.9-1.2-3c0.3-1.8,1.9-3.2,3.8-3.1h6.7c1.9,0,3.4-1.6,3.4-3.5
	c0,0,0,0,0,0c0.1-1.9,1.6-3.4,3.5-3.4H51.2 M51.2,4.1h-7c-3,0-5.4,2.4-5.5,5.4c0,0.8-0.6,1.5-1.4,1.6c0,0,0,0,0,0h-6.7
	c-2.9-0.1-5.4,2.1-5.8,4.9c-0.2,1.7,0.5,3.5,1.8,4.6c1.1,0.9,2.4,1.4,3.8,1.4H65c3,0,5.5-2.5,5.5-5.5c0-0.4,0-0.8-0.1-1.1
	c-0.6-2.6-3-4.4-5.6-4.3h-6.6c-0.8,0-1.4-0.6-1.5-1.4C56.6,6.6,54.2,4.1,51.2,4.1L51.2,4.1L51.2,4.1z"/>
<path id="Shape" class="st0" d="M24.3,66v-7h-3.9V36.8h34.2V59H31.2L24.3,66z M22.6,57l3.7,0v4.2l4.2-4.2h22.1V38.8l-30,0
	C22.6,38.8,22.6,57,22.6,57z"/>
<rect id="Rectangle-path" x="27.3" y="46.9" class="st2" width="20.4" height="2"/>
<rect id="Rectangle-path-2" x="27.3" y="42.5" class="st2" width="20.4" height="2"/>
<rect id="Rectangle-path-3" x="27.3" y="51.4" class="st2" width="11.1" height="2"/>
<rect x="37.4" y="53.7" class="st1" width="35.3" height="20.8"/>
<path id="Shape-2" class="st0" d="M63.4,76.6H35.1V51.4H75v25.2h-3.7v7.9L63.4,76.6z M72.7,53.7H37.4v20.7h26.9L69,79v-4.7h3.7
	L72.7,53.7L72.7,53.7z"/>
<rect id="Rectangle-path-4" x="42.9" y="62.8" class="st2" width="24.3" height="2.3"/>
<rect id="Rectangle-path-5" x="42.9" y="57.8" class="st2" width="24.3" height="2.3"/>
<rect id="Rectangle-path-6" x="53.5" y="67.9" class="st2" width="13.6" height="2.3"/>
<polygon class="st0" points="33.2,82.2 71.2,44.1 74.5,47.4 36.5,85.5 "/>
<path class="st1" d="M71.2,45.5l1.9,1.9L36.5,84.1l-1.9-1.9L71.2,45.5 M71.2,42.7l-1.4,1.4L33.2,80.8l-1.4,1.4l1.4,1.4l1.8,1.9
	l1.4,1.4l1.4-1.4l36.7-36.6l1.4-1.4L74.5,46l-1.9-1.9L71.2,42.7L71.2,42.7L71.2,42.7z"/>
</svg>
