<svg id="Layer_1" data-name="Layer 1" xmlns="http://www.w3.org/2000/svg" xmlns:xlink="http://www.w3.org/1999/xlink" viewBox="0 0 95.34 104.32"><defs><style>.cls-1{fill:none;}.cls-2{clip-path:url(#clip-path);}.cls-3{fill:#244c66;}.cls-4{fill:#fff;}</style><clipPath id="clip-path"><rect class="cls-1" x="-3999.93" y="-7282.28" width="5059.95" height="6765.77"/></clipPath></defs><title>Index </title><g id="Shape"><path class="cls-3" d="M77.71,50.51a4.75,4.75,0,1,1-4.81,4.75A4.78,4.78,0,0,1,77.71,50.51ZM17.63,60a4.75,4.75,0,1,1,4.81-4.75A4.78,4.78,0,0,1,17.63,60Zm0,28.5a4.75,4.75,0,1,1,4.81-4.75A4.78,4.78,0,0,1,17.63,88.51ZM77.71,79a4.75,4.75,0,1,1-4.81,4.75A4.78,4.78,0,0,1,77.71,79ZM40.46,46.2a16.94,16.94,0,0,0-2.4,1.37l-2.73,2.37a16.69,16.69,0,0,0-2.83,4.13H24.73a7.13,7.13,0,1,0,0,2.38h6.83a16.31,16.31,0,0,0-.71,4.75c0,0.53,0,1.05.08,1.57l0.43,2.41a16.43,16.43,0,0,0,2.88,6l-11,8.14a7.1,7.1,0,1,0,1.59,4.46,7,7,0,0,0-.42-2.36L35.8,73a16.84,16.84,0,0,0,2.07,1.72L40,76a16.85,16.85,0,0,0,6.49,1.79h2.4A16.83,16.83,0,0,0,55.21,76l2.12-1.25A17,17,0,0,0,59.54,73L70.92,81.4a7,7,0,0,0-.42,2.36,7.18,7.18,0,1,0,1.59-4.46l-11-8.14a16.47,16.47,0,0,0,2.88-6l0.43-2.41c0-.52.08-1,0.08-1.57a16.35,16.35,0,0,0-.71-4.75h6.83a7.13,7.13,0,1,0,0-2.38H62.85A14.24,14.24,0,0,0,60,49.94c-0.65-.63-2-1.81-2.73-2.37a12.69,12.69,0,0,0-2.4-1.37l-2.4-.93a16.84,16.84,0,0,0-9.61,0Zm7.21-1a16,16,0,1,1-16.21,16A16.13,16.13,0,0,1,47.67,45.18Z"/></g><g id="Shape-2" data-name="Shape"><path class="cls-3" d="M17.63,31.51A7.21,7.21,0,0,0,22,30.08a7.51,7.51,0,0,0,.64-0.53l3.77,2.91,1.44-1.9L24,27.65a7,7,0,0,0,.8-3.27A7.21,7.21,0,1,0,17.63,31.51Zm0-11.88a4.78,4.78,0,0,1,4.81,4.75,4.7,4.7,0,0,1-1.92,3.8A4.77,4.77,0,1,1,17.63,19.63Z"/></g><path class="cls-3" d="M66.27,13.44A16.69,16.69,0,0,0,49.6,30.1V43.18a18.31,18.31,0,1,0,8.28,3.07V30.57a8.39,8.39,0,0,1,16.77,0v6.32a2,2,0,0,0,.68,1.5l4.28,3.75a2,2,0,0,0,3.32-1.5V30.1A16.69,16.69,0,0,0,66.27,13.44Zm-8.39,35.3A16.59,16.59,0,1,1,49.6,45.2l2,0.38a16.17,16.17,0,0,1,4.28,1.77Zm23.06-8.1-4.28-3.75V30.57a10.39,10.39,0,0,0-20.77,0v14.5a18.13,18.13,0,0,0-4.28-1.55V30.1a14.67,14.67,0,0,1,29.34,0V40.64Z"/><path class="cls-3" d="M44.4,63.27v7.14h6.43V62.94c1.44-1.18,2.71-3,2.63-4.83a6,6,0,0,0-12,.55A6.29,6.29,0,0,0,44.4,63.27Z"/><path class="cls-4" d="M47.59,54.39a3.83,3.83,0,0,1,3.85,3.8,3.75,3.75,0,0,1-1.93,3.27l-0.64.37v6.5H46.31v-6.5l-0.64-.37a3.75,3.75,0,0,1-1.93-3.27A3.83,3.83,0,0,1,47.59,54.39Z"/></svg>